<svg width="35" height="35" viewBox="0 0 35 35" fill="none" xmlns="http://www.w3.org/2000/svg">
<path d="M35 17.4408C35 7.80859 27.1649 0 17.5 0C7.83508 0 0 7.80846 0 17.4408C0 26.146 6.39953 33.3615 14.7656 34.6698V22.4823H10.3223V17.4408H14.7656V13.5984C14.7656 9.2273 17.3783 6.81283 21.3756 6.81283C23.2903 6.81283 25.293 7.15347 25.293 7.15347V11.4456H23.0863C20.9122 11.4456 20.2344 12.79 20.2344 14.1693V17.4408H25.0879L24.312 22.4823H20.2344V34.6698C28.6005 33.3615 35 26.1461 35 17.4408Z" fill="#1877F2"/>
<path d="M24.4293 22.6019L25.2165 17.5609H20.2923V14.2897C20.2923 12.9104 20.9801 11.5662 23.1858 11.5662H25.4245V7.27457C25.4245 7.27457 23.3927 6.93396 21.4501 6.93396C17.3946 6.93396 14.7439 9.34818 14.7439 13.7189V17.5609H10.2358V22.6019H14.7439V34.7881C15.6616 34.9294 16.5892 35.0002 17.5181 35C18.447 35.0003 19.3745 34.9294 20.2923 34.7881V22.6019H24.4293Z" fill="white"/>
</svg>
