<svg width="35" height="35" viewBox="0 0 35 35" fill="none" xmlns="http://www.w3.org/2000/svg">
<path d="M17.5 0C15.2019 0 12.9262 0.463889 10.803 1.36518C8.67984 2.26647 6.75066 3.58752 5.12563 5.25288C1.84374 8.61625 0 13.178 0 17.9345C0 25.8615 5.0225 32.5869 11.97 34.9722C12.845 35.1157 13.125 34.5597 13.125 34.0755V31.0446C8.2775 32.1206 7.245 28.6413 7.245 28.6413C6.44 26.561 5.3025 26.005 5.3025 26.005C3.71 24.893 5.425 24.9289 5.425 24.9289C7.175 25.0545 8.1025 26.7762 8.1025 26.7762C9.625 29.5022 12.1975 28.6952 13.195 28.2647C13.3525 27.099 13.8075 26.3099 14.2975 25.8615C10.4125 25.4131 6.335 23.8708 6.335 17.0377C6.335 15.047 7 13.4509 8.1375 12.1775C7.9625 11.7291 7.35 9.86396 8.3125 7.44281C8.3125 7.44281 9.7825 6.95857 13.125 9.27212C14.5075 8.87756 16.0125 8.68028 17.5 8.68028C18.9875 8.68028 20.4925 8.87756 21.875 9.27212C25.2175 6.95857 26.6875 7.44281 26.6875 7.44281C27.65 9.86396 27.0375 11.7291 26.8625 12.1775C28 13.4509 28.665 15.047 28.665 17.0377C28.665 23.8887 24.57 25.3952 20.6675 25.8436C21.2975 26.3995 21.875 27.4935 21.875 29.1615V34.0755C21.875 34.5597 22.155 35.1336 23.0475 34.9722C29.995 32.569 35 25.8615 35 17.9345C35 15.5793 34.5473 13.2472 33.6679 11.0712C32.7884 8.89534 31.4994 6.91825 29.8744 5.25288C28.2493 3.58752 26.3202 2.26647 24.197 1.36518C22.0738 0.463889 19.7981 0 17.5 0Z" fill="black"/>
</svg>
