<svg width="35" height="35" viewBox="0 0 35 35" fill="none" xmlns="http://www.w3.org/2000/svg">
<path d="M35 17.8889C35 16.45 34.8809 15.4 34.6231 14.3111H17.8572V20.8055H27.6984C27.5 22.4194 26.4286 24.85 24.0476 26.4832L24.0142 26.7007L29.3153 30.7252L29.6826 30.7611C33.0555 27.7083 35 23.2166 35 17.8889Z" fill="#4285F4"/>
<path d="M17.8571 35C22.6785 35 26.726 33.4444 29.6825 30.7611L24.0475 26.4832C22.5396 27.5138 20.5158 28.2332 17.8571 28.2332C13.1349 28.2332 9.127 25.1806 7.69829 20.9611L7.48887 20.9785L1.97675 25.1591L1.90466 25.3555C4.84114 31.0721 10.8729 35 17.8571 35Z" fill="#34A853"/>
<path d="M7.69834 20.9611C7.32136 19.8723 7.10319 18.7055 7.10319 17.5C7.10319 16.2944 7.32137 15.1278 7.67851 14.0389L7.66852 13.807L2.08732 9.55927L1.90472 9.64439C0.694453 12.0166 0 14.6806 0 17.5C0 20.3195 0.694453 22.9833 1.90472 25.3555L7.69834 20.9611Z" fill="#FBBC05"/>
<path d="M17.8571 6.76662C21.2102 6.76662 23.4721 8.18606 24.7618 9.37225L29.8015 4.55C26.7063 1.73056 22.6785 0 17.8571 0C10.8729 0 4.84114 3.92775 1.90466 9.64437L7.67845 14.0389C9.127 9.81944 13.1349 6.76662 17.8571 6.76662Z" fill="#EB4335"/>
</svg>
