<svg width="27" height="27" viewBox="0 0 27 27" fill="none" xmlns="http://www.w3.org/2000/svg">
<path d="M7.49794 22C6.12331 22 5.01112 23.125 5.01112 24.5C5.01112 25.875 6.12331 27 7.49794 27C8.87256 27 9.99725 25.875 9.99725 24.5C9.99725 23.125 8.87256 22 7.49794 22ZM0 3.25C0 3.9375 0.562345 4.5 1.24966 4.5H2.49931L6.99807 13.9875L5.31104 17.0375C4.39879 18.7125 5.59846 20.75 7.49794 20.75H21.2442C21.9315 20.75 22.4938 20.1875 22.4938 19.5C22.4938 18.8125 21.9315 18.25 21.2442 18.25H7.49794L8.87256 15.75H18.1825C19.1197 15.75 19.9445 15.2375 20.3694 14.4625L24.8432 6.35C24.9485 6.16053 25.0025 5.94684 24.9999 5.73007C24.9973 5.5133 24.9382 5.30097 24.8283 5.11408C24.7185 4.92719 24.5618 4.77223 24.3737 4.66452C24.1856 4.55682 23.9727 4.50011 23.756 4.5H5.26105L4.42378 2.7125C4.32335 2.49913 4.16423 2.3188 3.96504 2.19262C3.76586 2.06643 3.53486 1.99962 3.29909 2H1.24966C0.562345 2 0 2.5625 0 3.25ZM19.9945 22C18.6199 22 17.5077 23.125 17.5077 24.5C17.5077 25.875 18.6199 27 19.9945 27C21.3691 27 22.4938 25.875 22.4938 24.5C22.4938 23.125 21.3691 22 19.9945 22Z" fill="white"/>
<circle cx="22.5" cy="4.5" r="4.5" fill="#FFD74B"/>
<path d="M21.4298 6.5C21.3118 6.5 21.2107 6.46428 21.1264 6.39286C21.0421 6.32143 21 6.23571 21 6.13571C21 6.06905 21.0183 5.99762 21.0549 5.92143C21.0916 5.84524 21.1379 5.78333 21.1938 5.73571L22.6854 4.44286C22.8764 4.28095 23.0084 4.14286 23.0815 4.02857C23.1545 3.91429 23.191 3.78571 23.191 3.64286C23.191 3.50476 23.1278 3.37981 23.0012 3.268C22.8747 3.15619 22.6852 3.10019 22.4326 3.1C22.2978 3.1 22.1798 3.12143 22.0787 3.16429C21.9775 3.20714 21.8904 3.26667 21.8174 3.34286C21.7444 3.41905 21.6643 3.47143 21.5771 3.5C21.4899 3.52857 21.4043 3.52857 21.3202 3.5C21.2247 3.46667 21.1573 3.40952 21.118 3.32857C21.0787 3.24762 21.0843 3.17381 21.1348 3.10714C21.2528 2.94048 21.4213 2.79762 21.6404 2.67857C21.8596 2.55952 22.1292 2.5 22.4494 2.5C22.9157 2.5 23.2795 2.61314 23.5409 2.83943C23.8022 3.06571 23.9328 3.33352 23.9326 3.64286C23.9326 3.85714 23.8736 4.05238 23.7556 4.22857C23.6376 4.40476 23.4551 4.6 23.2079 4.81429L21.9775 5.9L21.9944 5.92857H23.6629C23.7584 5.92857 23.8385 5.956 23.9033 6.01086C23.968 6.06571 24.0002 6.13352 24 6.21428C24 6.29524 23.9676 6.36314 23.9029 6.418C23.8382 6.47286 23.7582 6.50019 23.6629 6.5H21.4298Z" fill="white"/>
</svg>
