<svg width="17" height="20" viewBox="0 0 17 20" fill="none" xmlns="http://www.w3.org/2000/svg">
<path d="M8.46326 0C9.52413 0 10.5415 0.421427 11.2917 1.17157C12.0418 1.92172 12.4633 2.93913 12.4633 4H14.4983C15.0164 3.99993 15.5144 4.20099 15.8873 4.56081C16.2602 4.92064 16.4789 5.41114 16.4973 5.929L16.9253 17.929C16.9348 18.1974 16.8902 18.4649 16.7941 18.7157C16.698 18.9665 16.5523 19.1953 16.3659 19.3886C16.1794 19.5819 15.9559 19.7356 15.7088 19.8407C15.4616 19.9457 15.1958 19.9999 14.9273 20H1.99926C1.7307 19.9999 1.46492 19.9457 1.21775 19.8407C0.970587 19.7356 0.747109 19.5819 0.560646 19.3886C0.374184 19.1953 0.228557 18.9665 0.13245 18.7157C0.0363436 18.4649 -0.00827311 18.1974 0.00126073 17.929L0.429261 5.929C0.447656 5.41114 0.666327 4.92064 1.03921 4.56081C1.41209 4.20099 1.91008 3.99993 2.42826 4H4.46326C4.46326 2.93913 4.88469 1.92172 5.63483 1.17157C6.38498 0.421427 7.40239 0 8.46326 0ZM6.46326 6H4.46326V7C4.46354 7.25488 4.56114 7.50003 4.73611 7.68537C4.91108 7.8707 5.15021 7.98224 5.40466 7.99717C5.6591 8.01211 5.90964 7.92933 6.10509 7.76574C6.30055 7.60215 6.42616 7.3701 6.45626 7.117L6.46326 7V6ZM12.4633 6H10.4633V7C10.4633 7.26522 10.5686 7.51957 10.7562 7.70711C10.9437 7.89464 11.198 8 11.4633 8C11.7285 8 11.9828 7.89464 12.1704 7.70711C12.3579 7.51957 12.4633 7.26522 12.4633 7V6ZM8.46326 2C7.95868 1.99984 7.47269 2.19041 7.10271 2.5335C6.73273 2.87659 6.5061 3.34684 6.46826 3.85L6.46326 4H10.4633C10.4633 3.46957 10.2525 2.96086 9.87747 2.58579C9.5024 2.21071 8.99369 2 8.46326 2Z" fill="#F8F8F8"/>
</svg>
