<svg width="20" height="20" viewBox="0 0 20 20" fill="none" xmlns="http://www.w3.org/2000/svg">
<path d="M8.83322 19.3333C8.50267 19.3333 8.22539 19.2213 8.00139 18.9973C7.77739 18.7733 7.66578 18.4964 7.66656 18.1667V11.1667L0.899889 2.53332C0.608222 2.14443 0.564278 1.7361 0.768056 1.30832C0.971833 0.880546 1.32689 0.666656 1.83322 0.666656H18.1666C18.6721 0.666656 19.0272 0.880546 19.2317 1.30832C19.4363 1.7361 19.3923 2.14443 19.0999 2.53332L12.3332 11.1667V18.1667C12.3332 18.4972 12.2212 18.7745 11.9972 18.9985C11.7732 19.2225 11.4963 19.3341 11.1666 19.3333H8.83322Z" fill="black"/>
</svg>
